<svg xmlns="http://www.w3.org/2000/svg" version="1.1" xmlns:xlink="http://www.w3.org/1999/xlink" xmlns:svgjs="http://svgjs.com/svgjs" width="1440" height="560" preserveAspectRatio="none" viewBox="0 0 1440 560"><g mask="url(&quot;#SvgjsMask1008&quot;)" fill="none"><path d="M666.99 668.02C804.77 649.17 853.55 347.07 1107.91 328.89 1362.28 310.71 1430.41 158.38 1548.84 155.29" stroke="rgba(132, 94, 194, 1)" stroke-width="2"></path><path d="M504.78 591.01C654.44 575.85 751.74 255.43 1003.97 255.05 1256.2 254.67 1369.63 442.25 1503.16 445.45" stroke="rgba(132, 94, 194, 1)" stroke-width="2"></path><path d="M893.54 591.8C1000.03 590.99 1080.58 495.26 1306.45 487.06 1532.32 478.86 1597.43 234.73 1719.36 223.86" stroke="rgba(132, 94, 194, 1)" stroke-width="2"></path><path d="M58.41 645.63C262.25 631.45 387.79 247.38 766.96 238.25 1146.14 229.12 1295.22 104.44 1475.52 103.85" stroke="rgba(132, 94, 194, 1)" stroke-width="2"></path><path d="M547.68 638.12C671.87 619.02 733.25 324.19 937.83 321.27 1142.41 318.35 1132.91 391.27 1327.98 391.27 1523.06 391.27 1619.04 321.55 1718.13 321.27" stroke="rgba(132, 94, 194, 1)" stroke-width="2"></path></g><defs><mask id="SvgjsMask1008"><rect width="1440" height="560" fill="#ffffff"></rect></mask></defs></svg>