<?xml version="1.0" encoding="utf-8"?>
<!-- Generator: Adobe Illustrator 22.1.0, SVG Export Plug-In . SVG Version: 6.00 Build 0)  -->
<svg version="1.1" id="Layer_1" xmlns="http://www.w3.org/2000/svg" xmlns:xlink="http://www.w3.org/1999/xlink" x="0px" y="0px"
	 viewBox="0 0 416.1 500" style="enable-background:new 0 0 416.1 500;" xml:space="preserve">
<style type="text/css">
	.st0{fill:#F9C041;}
	.st1{fill:#EFD256;}
	.st2{fill:#04A2FF;}
	.st3{fill:none;}
	.st4{fill:#FCDF64;}
	.st5{fill:#FFFFFF;}
</style>
<path class="st0" d="M101.9,258.4l-6.1,6.7C96.4,261.6,98.2,259,101.9,258.4z"/>
<path class="st0" d="M310.1,27.9l-44.7,48.8c-4-1.7-7.7-1.8-9.9,1.3c-0.5,0.8-1,1.7-1.3,2.9c-0.8,2.7,0,4.7,1.7,6.2L88.3,269.7
	c-2.1-4.1-4-8.4-5.7-12.7c4.3-6,21.3-31.3,7.6-35C77,218.4,78.1,237.7,80,249.6c-3.2-10-5.3-20.5-6.1-31.4
	c6.8-6.3,25.8-25.3,13.9-31.6c-7.7-4.1-11.8,2.2-13.9,10.4c0.8-10.4,2.8-20.5,5.8-30.3c7.8-1.2,31.1-5.9,25.4-16.3
	s-17,1.8-23.3,10.1c5.2-14.2,12.7-27.4,22.1-39.1c7.1,0.5,32.5,1.3,29.1-10.4c-3-10.2-14.4-3.6-22.5,2.8
	c8.1-8.7,17.4-16.3,27.7-22.7c6.5,0.4,33,1.5,29.5-10.4c-0.4-1.2-0.8-2.1-1.4-2.9c-6-8.2-22.9,6.8-28,11.7
	c-6,3.1-11.7,6.7-17.1,10.6c6.1-7.8,15.7-22.1,6.2-25.8c-13.8-5.3-11.5,22.1-10.7,29.2c-7.2,5.8-13.8,12.5-19.6,20.3
	c-3,4.1-5.7,8.2-8.3,12.5c2-9.9,3.6-24.8-5.9-24c-14.3,1.2-1.9,23.1,2.4,30.2c-5.6,10.8-9.8,22.2-12.4,33.9
	c-0.9-9.7-3.7-21.5-11.7-18.6C48,162.6,64.8,180,71.1,186c-1.1,7.1-1.7,14.4-1.7,21.7c0,8.1,0.7,16,2,23.7
	C67.3,220.7,60,207,51.7,213.2c-13.7,10.3,14.9,25,21.9,28.4c2.6,10.9,6.6,21.3,11.8,31.1c0.4,0.8,0.8,1.5,1.2,2.3l-0.1,0.1
	c-0.6-0.5-1.2-1-1.8-1.6c-8.5-7.2-19.9-14.3-24.1-5.6c-4.6,9.4,5.6,13.1,16,14.5L42,320.2L27.9,312v-29.4L7.1,261.9l7.6-28.4L0,208
	l14.7-25.5l-7.6-28.4l20.8-20.8V104l25.5-14.7L61,60.9l28.4-7.6L104,27.9h29.4l20.8-20.8l28.4,7.6L208,0l25.5,14.7l28.4-7.6
	l20.8,20.8H310.1z"/>
<path class="st1" d="M339.5,209.3c0.5,0.5,0.9,1,1.4,1.6l-68.3,68.3L148.5,403.3l-1.5-1.5l-12.2-12.2v-42.8
	c7.6-2.5,15.8-7.6,19.1-9.8c14.1,6.2,29.5,10.1,45.6,11.4c0.4,0,0.7,0,1-0.2l0.9-0.9v-0.1c0.1-0.2,0.2-0.4,0.2-0.7
	c0.1-1-0.7-2-1.8-2.1c-6.9-0.5-13.7-1.6-20.3-3.1c0.1-6.1,0.2-41.6-14.7-36.3c-17.3,6.1,7.2,30.3,13.4,36
	c-14.3-3.4-27.7-9.2-39.8-16.6c0.9-5,5-30.4-3.6-35c-1.2-0.7-2.8-0.9-4.6-0.6c-14.8,2.7-2,22.8,4.6,31.9v1.3
	c-11.9-7.8-22.4-17.5-31.3-28.6c3.6-7.7,14.7-33.9,1-35.1c-1-0.1-2,0-2.8,0.1c-3.7,0.5-5.6,3.1-6.1,6.7l-6.3,6.9
	c-0.4-0.7-0.8-1.5-1.2-2.3L255.8,87.1c0.5,0.4,1,0.8,1.6,1.1c6.9,3.9,21.6,3.3,26.2,3c10.3,6.3,19.6,14,27.8,22.7
	c-8.1-6.4-19.5-13-22.5-2.8c-3.4,11.7,22,10.9,29.1,10.4c9.4,11.7,16.9,24.9,22.1,39.1c-6.4-8.3-17.7-20.4-23.3-10.1
	c-5.6,10.3,17.6,15,25.4,16.3c3,9.7,5,19.9,5.8,30.3c-2.1-8.2-6.2-14.5-13.9-10.4C325.9,190.8,332.4,201.2,339.5,209.3z"/>
<path class="st1" d="M95.8,265.1l6.1-6.7C98.2,259,96.4,261.6,95.8,265.1z M95.8,265.1l-6.3,6.9c3.1,5.8,6.5,11.3,10.3,16.5
	C97.5,281.8,94.6,271.8,95.8,265.1z M86.7,275.1c-0.4-0.8-0.8-1.5-1.2-2.3l-0.7,0.8C85.5,274.1,86.1,274.7,86.7,275.1
	c0,0.2,0.1,0.2,0.1,0.3C86.8,275.2,86.8,275.2,86.7,275.1z"/>
<path class="st2" d="M284.5,388.2V495c0,3.8-4.1,6.2-7.4,4.4l-40.5-21.9l-24.5-13.3c-1.5-0.8-3.3-0.8-4.8,0l-27.7,15l-37.3,20.2
	c-3.3,1.8-7.4-0.6-7.4-4.4V389.6l12.2,12.2l1.5,1.5l5.7,5.7l28.4-7.6l25.4,14.7l25.5-14.7L262,409l20.8-20.8L284.5,388.2
	L284.5,388.2z"/>
<path class="st1" d="M403.3,148.5L352,199.8c0-0.9-0.1-1.9-0.2-2.8c-0.3-3.6-0.7-7.3-1.2-10.9c6.3-6,23.1-23.4,10-28.2
	c-8.1-2.9-10.9,9-11.8,18.6c-2.7-11.8-6.8-23.1-12.4-33.9c4.3-7,16.7-29,2.5-30.2c-9.5-0.8-8,14.1-5.9,24c-2.5-4.3-5.3-8.4-8.3-12.5
	c-5.8-7.8-12.4-14.5-19.6-20.3c0.8-7.1,3.2-34.4-10.7-29.2c-9.5,3.6,0.1,18,6.2,25.8c-5.4-3.9-11.1-7.4-17-10.6
	c-3-2.8-9.9-9-16.3-12.1c-0.6-0.4-1.2-0.6-1.9-0.8l44.7-48.8h2l0.2,0.4l14.5,25.1l28.4,7.6l7.6,28.4l25.5,14.7v29.4l13.6,13.6
	L403.3,148.5z"/>
<path class="st3" d="M282.7,27.9L261.9,7.1l-28.4,7.6L208,0l-25.4,14.7l-28.4-7.6l-20.8,20.8H104L89.4,53.3L61,60.9l-7.6,28.4
	L27.9,104v29.4L7.1,154.2l7.6,28.4L0,208l14.7,25.4l-7.6,28.4l20.8,20.8V312l14.1,8.2l34.6-37.8c-10.4-1.4-20.5-5-16-14.5
	c4.2-8.7,15.7-1.6,24.1,5.6c0.6,0.5,1.3,1.1,1.8,1.6c0.1,0.1,0.2,0.2,0.2,0.2c0-0.1-0.1-0.2-0.1-0.3c-0.4-0.8-0.8-1.5-1.2-2.3
	c-5.1-9.8-9.1-20.2-11.8-31.1c-7-3.4-35.6-18.2-21.9-28.4c8.3-6.2,15.6,7.5,19.7,18.2c-1.3-7.8-2-15.7-2-23.7
	c0-7.3,0.6-14.6,1.7-21.7c-6.4-6-23.1-23.4-9.9-28.2c8.1-2.9,10.8,9,11.7,18.6c2.6-11.8,6.8-23.1,12.4-33.9c-4.3-7-16.7-29-2.4-30.2
	c9.5-0.8,7.9,14.1,5.9,24c2.5-4.3,5.3-8.4,8.3-12.5c5.8-7.8,12.4-14.5,19.6-20.3c-0.8-7.1-3.1-34.4,10.7-29.2
	c9.5,3.6-0.1,18-6.2,25.8c5.4-3.9,11.1-7.4,17.1-10.6c5.1-4.9,22-19.9,28-11.7c0.6,0.8,1,1.7,1.4,2.9c3.5,11.9-23,10.8-29.5,10.4
	c-10.3,6.3-19.6,14-27.7,22.7c8.1-6.4,19.4-13,22.5-2.8c3.4,11.7-22,10.9-29.1,10.4c-9.4,11.7-16.9,24.9-22.1,39.1
	c6.4-8.3,17.7-20.4,23.3-10.1s-17.6,15-25.4,16.3c-3,9.7-5,19.9-5.8,30.3c2.1-8.2,6.2-14.5,13.9-10.4c11.9,6.2-7.1,25.3-13.9,31.6
	c0.8,10.9,2.9,21.4,6.1,31.4c-1.8-11.9-2.9-31.2,10.2-27.6c13.7,3.7-3.3,29-7.6,35c1.7,4.4,3.6,8.6,5.7,12.7L255.8,87.1
	c-1.8-1.5-2.5-3.5-1.7-6.2c0.4-1.2,0.8-2.1,1.3-2.9c2.2-3,5.8-2.9,9.9-1.3L310,27.9C310,27.9,282.7,27.9,282.7,27.9z M95.8,265.1
	l6.1-6.7C98.2,259,96.4,261.6,95.8,265.1z M95.8,265.1l-6.3,6.9c3.1,5.8,6.5,11.3,10.3,16.5C97.5,281.8,94.6,271.8,95.8,265.1z"/>
<path class="st4" d="M401.4,233.5l7.6,28.4l-20.8,20.8v29.4l-25.5,14.7l-7.6,28.4l-28.4,7.6L312,388.3h-29.4l-20.8,20.8l-28.4-7.6
	L208,416.1l-25.4-14.7l-28.4,7.6l-5.7-5.7l124.1-124.1l68.3-68.3c2.7,3,5.3,5.5,7.1,7.2c-0.8,10.9-2.9,21.4-6.1,31.4
	c1.8-11.9,2.9-31.2-10.3-27.6c-13.7,3.7,3.3,29,7.6,35c-4.3,11.3-10.2,21.9-17.2,31.5c4-11.1,9.3-31.5-4.8-30.2
	c-13.7,1.3-2.6,27.4,1,35.1c-9.4,11.7-20.6,21.8-33.2,29.9c5.4-7,22.9-31.5,6.6-34.5c-3.3-0.6-5.6,0.6-7.1,3
	c-5.2,7.9-1.9,28.2-1.1,32.6c-12.1,7.5-25.5,13.2-39.7,16.6c6.1-5.7,30.6-29.9,13.3-36c-14.9-5.3-14.8,30.2-14.7,36.3
	c-6.5,1.6-13.4,2.6-20.3,3.1c-1.1,0.1-1.9,1-1.8,2.1c0.1,1.1,1,1.9,2.1,1.8c16.1-1.3,31.5-5.2,45.6-11.4c3,2,9.8,6.1,16.6,8.8
	c8.8,3.5,17.8,4.5,18.7-5c0.8-8.2-9-9.3-18.7-8.4c-3.6,0.3-7.2,0.9-10.2,1.6c3.5-1.8,6.9-3.6,10.2-5.7c7.7-4.7,14.9-10.1,21.5-16.1
	c9,2.2,37.7,8.2,34-7.8c-2.4-10.3-17.4-4.1-27.4,1.5c6.7-6.9,12.7-14.5,17.8-22.6c9.9,0.1,37.9-0.7,30.8-15.2
	c-4.6-9.4-17.6-0.3-26.2,7.4c5.8-10.5,10.2-21.8,13.2-33.6c7-3.4,35.6-18.2,21.8-28.4c-8.3-6.2-15.6,7.5-19.7,18.2
	c1.3-7.8,2-15.7,2-23.7c0-2.6,0-5.4-0.3-8l51.3-51.3l5.7,5.7l-7.6,28.4l14.7,25.5L401.4,233.5z"/>
<path class="st1" d="M118.7,340.8c0.8,8.6,8.2,8.6,16.2,6v42.8l-1.5-1.5H104l-14.7-25.5L61,355.1l-7.6-28.4l-9-5.2l-2.3-1.3
	l34.6-37.8c1,0.1,2,0.2,3,0.3c4.6,0.5,9,0.5,11.8,0.5c5.2,8.1,11.2,15.7,17.8,22.6c-10-5.5-25-11.8-27.4-1.5c-3.7,16,25,10.1,34,7.8
	c5.9,5.4,12.3,10.2,19,14.6c4.1,2.6,8.4,5.1,12.7,7.2c-3.8-0.8-8.3-1.5-12.7-1.7C126.1,331.8,118,333.3,118.7,340.8z"/>
<path class="st5" d="M101.9,258.4l-6.1,6.7C96.4,261.6,98.2,259,101.9,258.4z"/>
</svg>
