<?xml version="1.0" encoding="UTF-8"?>
<svg xmlns="http://www.w3.org/2000/svg" xmlns:xlink="http://www.w3.org/1999/xlink" width="409.600006pt" height="409.600006pt" viewBox="0 0 409.600006 409.600006" version="1.1">
<g id="surface1">
<path style=" stroke:none;fill-rule:nonzero;fill:rgb(91%,91%,91%);fill-opacity:1;" d="M 204.800781 409.601562 C 91.871094 409.601562 0 317.726562 0 204.800781 C 0 91.875 91.871094 0 204.800781 0 C 317.730469 0 409.601562 91.875 409.601562 204.800781 C 409.601562 317.726562 317.730469 409.601562 204.800781 409.601562 Z M 204.800781 409.601562 "/>
<path style=" stroke:none;fill-rule:nonzero;fill:rgb(86%,86%,86%);fill-opacity:1;" d="M 409.601562 204.800781 C 409.601562 91.875 317.730469 0 204.800781 0 L 204.800781 409.601562 C 317.730469 409.601562 409.601562 317.726562 409.601562 204.800781 Z M 409.601562 204.800781 "/>
<path style=" stroke:none;fill-rule:nonzero;fill:rgb(65%,65%,65%);fill-opacity:1;" d="M 204.800781 382.886719 C 106.601562 382.886719 26.710938 302.996094 26.710938 204.800781 C 26.710938 106.605469 106.601562 26.710938 204.800781 26.710938 C 303 26.710938 382.886719 106.605469 382.886719 204.800781 C 382.886719 302.996094 303 382.886719 204.800781 382.886719 Z M 204.800781 382.886719 "/>
<path style=" stroke:none;fill-rule:nonzero;fill:rgb(58%,58%,58%);fill-opacity:1;" d="M 382.886719 204.800781 C 382.886719 106.605469 303 26.710938 204.800781 26.710938 L 204.800781 382.886719 C 303 382.886719 382.886719 302.996094 382.886719 204.800781 Z M 382.886719 204.800781 "/>
<path style=" stroke:none;fill-rule:nonzero;fill:rgb(100%,100%,100%);fill-opacity:1;" d="M 186.992188 284.9375 C 180.15625 284.9375 173.320312 282.332031 168.105469 277.113281 L 113.0625 222.070312 C 102.625 211.640625 102.625 194.726562 113.0625 184.296875 C 123.496094 173.859375 140.398438 173.859375 150.835938 184.296875 L 186.992188 220.445312 L 263.21875 144.226562 C 273.652344 133.789062 290.554688 133.789062 300.992188 144.226562 C 311.425781 154.65625 311.425781 171.566406 300.992188 182 L 205.878906 277.113281 C 200.660156 282.332031 193.828125 284.9375 186.992188 284.9375 Z M 186.992188 284.9375 "/>
<path style=" stroke:none;fill-rule:nonzero;fill:rgb(94%,94%,94%);fill-opacity:1;" d="M 263.21875 144.226562 L 204.800781 202.640625 L 204.800781 277.992188 C 205.148438 277.679688 205.542969 277.449219 205.878906 277.113281 L 300.992188 182 C 311.425781 171.570312 311.425781 154.65625 300.992188 144.226562 C 290.558594 133.792969 273.652344 133.792969 263.21875 144.226562 Z M 263.21875 144.226562 "/>
</g>
</svg>
