<?xml version="1.0" standalone="no"?>
<svg xmlns:xlink="http://www.w3.org/1999/xlink" id="wave" style="transform:rotate(0deg); transition: 0.3s" viewBox="0 0 1440 490" version="1.1" xmlns="http://www.w3.org/2000/svg"><defs><linearGradient id="sw-gradient-0" x1="0" x2="0" y1="1" y2="0"><stop stop-color="rgba(158.098, 98.707, 255, 1)" offset="0%"/><stop stop-color="rgba(132, 94, 194, 1)" offset="100%"/></linearGradient></defs><path style="transform:translate(0, 0px); opacity:1" fill="url(#sw-gradient-0)" d="M0,245L10,204.2C20,163,40,82,60,49C80,16,100,33,120,73.5C140,114,160,180,180,187.8C200,196,220,147,240,138.8C260,131,280,163,300,163.3C320,163,340,131,360,138.8C380,147,400,196,420,228.7C440,261,460,278,480,310.3C500,343,520,392,540,408.3C560,425,580,408,600,392C620,376,640,359,660,318.5C680,278,700,212,720,171.5C740,131,760,114,780,138.8C800,163,820,229,840,261.3C860,294,880,294,900,261.3C920,229,940,163,960,179.7C980,196,1000,294,1020,285.8C1040,278,1060,163,1080,147C1100,131,1120,212,1140,212.3C1160,212,1180,131,1200,122.5C1220,114,1240,180,1260,196C1280,212,1300,180,1320,147C1340,114,1360,82,1380,122.5C1400,163,1420,278,1430,334.8L1440,392L1440,490L1430,490C1420,490,1400,490,1380,490C1360,490,1340,490,1320,490C1300,490,1280,490,1260,490C1240,490,1220,490,1200,490C1180,490,1160,490,1140,490C1120,490,1100,490,1080,490C1060,490,1040,490,1020,490C1000,490,980,490,960,490C940,490,920,490,900,490C880,490,860,490,840,490C820,490,800,490,780,490C760,490,740,490,720,490C700,490,680,490,660,490C640,490,620,490,600,490C580,490,560,490,540,490C520,490,500,490,480,490C460,490,440,490,420,490C400,490,380,490,360,490C340,490,320,490,300,490C280,490,260,490,240,490C220,490,200,490,180,490C160,490,140,490,120,490C100,490,80,490,60,490C40,490,20,490,10,490L0,490Z"/><defs><linearGradient id="sw-gradient-1" x1="0" x2="0" y1="1" y2="0"><stop stop-color="rgba(0, 201, 167, 1)" offset="0%"/><stop stop-color="rgba(0, 201, 167, 1)" offset="100%"/></linearGradient></defs><path style="transform:translate(0, 50px); opacity:0.9" fill="url(#sw-gradient-1)" d="M0,196L10,228.7C20,261,40,327,60,310.3C80,294,100,196,120,138.8C140,82,160,65,180,98C200,131,220,212,240,245C260,278,280,261,300,212.3C320,163,340,82,360,106.2C380,131,400,261,420,285.8C440,310,460,229,480,236.8C500,245,520,343,540,326.7C560,310,580,180,600,114.3C620,49,640,49,660,98C680,147,700,245,720,269.5C740,294,760,245,780,196C800,147,820,98,840,122.5C860,147,880,245,900,302.2C920,359,940,376,960,359.3C980,343,1000,294,1020,285.8C1040,278,1060,310,1080,277.7C1100,245,1120,147,1140,138.8C1160,131,1180,212,1200,204.2C1220,196,1240,98,1260,98C1280,98,1300,196,1320,220.5C1340,245,1360,196,1380,147C1400,98,1420,49,1430,24.5L1440,0L1440,490L1430,490C1420,490,1400,490,1380,490C1360,490,1340,490,1320,490C1300,490,1280,490,1260,490C1240,490,1220,490,1200,490C1180,490,1160,490,1140,490C1120,490,1100,490,1080,490C1060,490,1040,490,1020,490C1000,490,980,490,960,490C940,490,920,490,900,490C880,490,860,490,840,490C820,490,800,490,780,490C760,490,740,490,720,490C700,490,680,490,660,490C640,490,620,490,600,490C580,490,560,490,540,490C520,490,500,490,480,490C460,490,440,490,420,490C400,490,380,490,360,490C340,490,320,490,300,490C280,490,260,490,240,490C220,490,200,490,180,490C160,490,140,490,120,490C100,490,80,490,60,490C40,490,20,490,10,490L0,490Z"/></svg>