<?xml version="1.0" encoding="UTF-8"?>
<svg xmlns="http://www.w3.org/2000/svg" xmlns:xlink="http://www.w3.org/1999/xlink" width="409.599213pt" height="409.599213pt" viewBox="0 0 409.599213 409.599213" version="1.1">
<g id="surface1">
<path style=" stroke:none;fill-rule:nonzero;fill:rgb(54%,54%,54%);fill-opacity:1;" d="M 288.9375 268.347656 L 225.453125 295.050781 L 273.910156 403.144531 L 296.875 370.214844 L 336.738281 374.980469 Z M 288.9375 268.347656 "/>
<path style=" stroke:none;fill-rule:nonzero;fill:rgb(54%,54%,54%);fill-opacity:1;" d="M 73.125 374.980469 L 112.988281 370.214844 L 135.953125 403.144531 L 184.410156 295.050781 L 120.925781 268.347656 Z M 73.125 374.980469 "/>
<path style=" stroke:none;fill-rule:nonzero;fill:rgb(43%,43%,43%);fill-opacity:1;" d="M 152.089844 281.453125 L 120.925781 268.347656 L 73.125 374.980469 L 112.261719 370.300781 L 138.726562 311.265625 C 143.402344 313.414062 148.519531 314.625 153.78125 314.625 C 155.660156 314.625 157.550781 314.476562 159.40625 314.183594 L 173.636719 311.945312 L 176.148438 313.476562 L 184.410156 295.050781 Z M 152.089844 281.453125 "/>
<path style=" stroke:none;fill-rule:nonzero;fill:rgb(43%,43%,43%);fill-opacity:1;" d="M 271.09375 311.167969 C 276.574219 308.605469 281.433594 304.730469 285.074219 299.722656 L 293.535156 288.085938 L 297.367188 287.160156 L 288.933594 268.347656 L 257.773438 281.453125 L 225.453125 295.050781 L 273.910156 403.144531 L 296.875 370.214844 L 297.601562 370.300781 Z M 271.09375 311.167969 "/>
<path style=" stroke:none;fill-rule:nonzero;fill:rgb(80%,80%,80%);fill-opacity:1;" d="M 351.339844 163.367188 L 342.847656 177.296875 C 340.933594 180.4375 340.195312 184.160156 340.765625 187.792969 L 343.296875 203.882812 C 344.203125 209.644531 341.808594 215.425781 337.089844 218.855469 L 323.925781 228.433594 C 320.945312 230.601562 318.832031 233.757812 317.964844 237.339844 L 314.132812 253.179688 C 312.761719 258.835938 308.347656 263.253906 302.691406 264.621094 L 286.851562 268.453125 C 283.269531 269.320312 280.109375 271.433594 277.941406 274.414062 L 268.371094 287.574219 C 264.941406 292.289062 259.15625 294.6875 253.394531 293.78125 L 237.3125 291.25 C 233.675781 290.679688 229.957031 291.414062 226.8125 293.332031 L 212.886719 301.824219 C 207.921875 304.851562 201.679688 304.851562 196.714844 301.824219 L 182.785156 293.332031 C 179.644531 291.414062 175.921875 290.675781 172.285156 291.25 L 156.199219 293.78125 C 150.4375 294.6875 144.652344 292.289062 141.222656 287.574219 L 131.648438 274.410156 C 129.480469 271.429688 126.324219 269.316406 122.742188 268.449219 L 106.902344 264.617188 C 101.246094 263.246094 96.828125 258.828125 95.460938 253.171875 L 91.628906 237.332031 C 90.761719 233.753906 88.648438 230.59375 85.667969 228.425781 L 72.507812 218.855469 C 67.789062 215.421875 65.394531 209.640625 66.300781 203.878906 L 68.832031 187.796875 C 69.402344 184.160156 68.664062 180.4375 66.75 177.296875 L 58.257812 163.367188 C 55.230469 158.402344 55.230469 152.160156 58.257812 147.195312 L 66.75 133.269531 C 68.664062 130.125 69.402344 126.40625 68.832031 122.769531 L 66.300781 106.679688 C 65.394531 100.921875 67.789062 95.136719 72.507812 91.707031 L 85.671875 82.132812 C 88.652344 79.964844 90.765625 76.804688 91.632812 73.226562 L 95.464844 57.386719 C 96.835938 51.726562 101.25 47.3125 106.90625 45.941406 L 122.746094 42.109375 C 126.328125 41.242188 129.488281 39.128906 131.65625 36.148438 L 141.226562 22.988281 C 144.660156 18.273438 150.441406 15.875 156.203125 16.78125 L 172.285156 19.3125 C 175.921875 19.886719 179.644531 19.148438 182.785156 17.230469 L 196.710938 8.738281 C 201.675781 5.710938 207.917969 5.710938 212.882812 8.738281 L 226.8125 17.230469 C 229.953125 19.148438 233.675781 19.886719 237.3125 19.3125 L 253.398438 16.78125 C 259.160156 15.875 264.945312 18.273438 268.375 22.988281 L 277.949219 36.152344 C 280.117188 39.132812 283.273438 41.246094 286.855469 42.113281 L 302.695312 45.945312 C 308.351562 47.316406 312.769531 51.734375 314.136719 57.390625 L 317.96875 73.230469 C 318.835938 76.8125 320.949219 79.96875 323.929688 82.136719 L 337.089844 91.710938 C 341.808594 95.140625 344.203125 100.925781 343.296875 106.6875 L 340.765625 122.769531 C 340.195312 126.402344 340.933594 130.125 342.847656 133.269531 L 351.339844 147.195312 C 354.367188 152.160156 354.367188 158.402344 351.339844 163.367188 Z M 351.339844 163.367188 "/>
<path style=" stroke:none;fill-rule:nonzero;fill:rgb(67%,67%,67%);fill-opacity:1;" d="M 115.292969 124.296875 C 115.292969 83.019531 130.773438 45.371094 156.21875 16.785156 L 156.203125 16.78125 C 150.441406 15.875 144.65625 18.269531 141.226562 22.988281 L 131.65625 36.148438 C 129.488281 39.128906 126.332031 41.242188 122.746094 42.109375 L 106.910156 45.941406 C 101.253906 47.308594 96.835938 51.726562 95.464844 57.382812 L 91.632812 73.222656 C 90.765625 76.804688 88.652344 79.960938 85.671875 82.128906 L 72.507812 91.707031 C 67.792969 95.136719 65.394531 100.917969 66.300781 106.679688 L 68.832031 122.765625 C 69.402344 126.402344 68.664062 130.125 66.75 133.265625 L 58.257812 147.195312 C 55.226562 152.160156 55.226562 158.398438 58.257812 163.363281 L 66.746094 177.289062 C 68.664062 180.433594 69.402344 184.15625 68.828125 187.792969 L 66.296875 203.875 C 65.390625 209.636719 67.789062 215.421875 72.503906 218.847656 L 85.664062 228.421875 C 88.644531 230.589844 90.757812 233.746094 91.625 237.332031 L 95.457031 253.167969 C 96.828125 258.828125 101.242188 263.242188 106.902344 264.613281 L 122.742188 268.445312 C 126.324219 269.3125 129.480469 271.425781 131.648438 274.40625 L 141.222656 287.570312 C 144.652344 292.285156 150.433594 294.683594 156.195312 293.777344 L 172.28125 291.246094 C 175.917969 290.675781 179.640625 291.410156 182.78125 293.328125 L 196.710938 301.820312 C 201.675781 304.847656 207.917969 304.847656 212.882812 301.820312 L 226.808594 293.328125 C 229.953125 291.410156 233.671875 290.675781 237.308594 291.246094 L 253.394531 293.777344 C 259.152344 294.6875 264.9375 292.289062 268.367188 287.570312 L 269.578125 285.90625 C 183.710938 281.980469 115.292969 211.136719 115.292969 124.296875 Z M 115.292969 124.296875 "/>
<path style=" stroke:none;fill-rule:nonzero;fill:rgb(85%,85%,85%);fill-opacity:1;" d="M 314.957031 155.285156 C 314.957031 216.125 265.636719 265.445312 204.796875 265.445312 C 143.957031 265.445312 94.632812 216.125 94.632812 155.285156 C 94.632812 94.445312 143.957031 45.121094 204.796875 45.121094 C 265.636719 45.121094 314.957031 94.445312 314.957031 155.285156 Z M 314.957031 155.285156 "/>
<path style=" stroke:none;fill-rule:nonzero;fill:rgb(80%,80%,80%);fill-opacity:1;" d="M 229.667969 208.386719 C 190.644531 200.621094 159.429688 169.386719 151.683594 130.359375 C 149.210938 117.890625 149.15625 105.773438 151.050781 94.3125 C 151.765625 89.972656 146.476562 87.292969 143.28125 90.320312 C 123.515625 109.023438 112.265625 136.625 116.007812 166.734375 C 120.972656 206.710938 153.363281 239.105469 193.339844 244.074219 C 223.453125 247.816406 251.054688 236.566406 269.761719 216.800781 C 272.789062 213.605469 270.109375 208.3125 265.769531 209.03125 C 254.289062 210.929688 242.15625 210.871094 229.667969 208.386719 Z M 229.667969 208.386719 "/>
<path style=" stroke:none;fill-rule:nonzero;fill:rgb(100%,100%,100%);fill-opacity:1;" d="M 204.796875 198.230469 L 167.515625 219.101562 C 163.636719 221.273438 158.996094 217.898438 159.863281 213.539062 L 168.191406 171.632812 L 136.820312 142.625 C 133.558594 139.605469 135.332031 134.152344 139.742188 133.628906 L 182.171875 128.597656 L 200.066406 89.800781 C 201.929688 85.765625 207.667969 85.765625 209.527344 89.800781 L 227.421875 128.597656 L 269.851562 133.628906 C 274.265625 134.152344 276.039062 139.609375 272.773438 142.625 L 241.40625 171.632812 L 249.734375 213.539062 C 250.597656 217.898438 245.957031 221.273438 242.078125 219.101562 Z M 204.796875 198.230469 "/>
<path style=" stroke:none;fill-rule:nonzero;fill:rgb(95%,95%,95%);fill-opacity:1;" d="M 204.796875 93.3125 L 208.960938 89.152344 C 206.753906 85.9375 201.796875 86.050781 200.066406 89.800781 L 182.171875 128.597656 L 139.742188 133.628906 C 135.328125 134.152344 133.554688 139.605469 136.820312 142.625 L 168.1875 171.632812 L 159.863281 213.539062 C 158.996094 217.898438 163.636719 221.269531 167.515625 219.101562 L 177.339844 213.601562 L 191.574219 171.964844 C 193.109375 167.476562 192.222656 162.507812 189.230469 158.828125 L 186.699219 155.714844 C 184.894531 153.488281 185.976562 150.136719 188.746094 149.394531 L 191.125 148.757812 C 196.742188 147.25 200.808594 142.375 201.28125 136.574219 Z M 204.796875 93.3125 "/>
<path style=" stroke:none;fill-rule:nonzero;fill:rgb(0%,0%,0%);fill-opacity:1;" d="M 251.265625 62.558594 C 254.445312 64.167969 258.328125 62.890625 259.9375 59.707031 C 261.542969 56.527344 260.269531 52.644531 257.085938 51.035156 C 212.03125 28.269531 157.757812 36.976562 122.039062 72.695312 C 80.523438 114.210938 76.367188 180.410156 112.371094 226.675781 C 113.644531 228.3125 115.546875 229.167969 117.472656 229.167969 C 118.855469 229.167969 120.253906 228.722656 121.429688 227.804688 C 124.246094 225.617188 124.75 221.5625 122.5625 218.746094 C 90.546875 177.609375 94.246094 118.746094 131.167969 81.824219 C 162.933594 50.054688 211.195312 42.3125 251.265625 62.558594 Z M 251.265625 62.558594 "/>
<path style=" stroke:none;fill-rule:nonzero;fill:rgb(0%,0%,0%);fill-opacity:1;" d="M 299.957031 99.738281 C 296.773438 101.347656 295.496094 105.226562 297.105469 108.410156 C 317.335938 148.472656 309.589844 196.726562 277.828125 228.488281 C 240.90625 265.40625 182.042969 269.105469 140.90625 237.09375 C 138.09375 234.90625 134.039062 235.410156 131.847656 238.222656 C 129.660156 241.039062 130.164062 245.09375 132.976562 247.28125 C 154.054688 263.683594 179.261719 271.75 204.390625 271.75 C 234.429688 271.75 264.351562 260.222656 286.957031 237.617188 C 322.671875 201.90625 331.378906 147.640625 308.628906 102.59375 C 307.023438 99.410156 303.140625 98.132812 299.957031 99.738281 Z M 299.957031 99.738281 "/>
<path style=" stroke:none;fill-rule:nonzero;fill:rgb(0%,0%,0%);fill-opacity:1;" d="M 273.097656 77.375 C 274.710938 78.800781 276.300781 80.296875 277.832031 81.824219 C 279.355469 83.351562 280.855469 84.941406 282.277344 86.554688 C 283.554688 88 285.332031 88.734375 287.117188 88.734375 C 288.636719 88.734375 290.164062 88.203125 291.390625 87.117188 C 294.0625 84.757812 294.3125 80.679688 291.953125 78.007812 C 290.355469 76.199219 288.671875 74.410156 286.960938 72.695312 C 285.246094 70.980469 283.457031 69.300781 281.648438 67.703125 C 278.976562 65.339844 274.898438 65.59375 272.539062 68.265625 C 270.175781 70.933594 270.425781 75.015625 273.097656 77.375 Z M 273.097656 77.375 "/>
<path style=" stroke:none;fill-rule:nonzero;fill:rgb(0%,0%,0%);fill-opacity:1;" d="M 356.851562 143.835938 L 348.359375 129.910156 C 347.242188 128.074219 346.808594 125.894531 347.140625 123.773438 L 349.671875 107.691406 C 350.964844 99.496094 347.597656 91.371094 340.886719 86.492188 L 327.726562 76.917969 C 325.988281 75.652344 324.75 73.804688 324.242188 71.714844 L 320.410156 55.875 C 318.464844 47.828125 312.257812 41.625 304.214844 39.675781 L 288.375 35.84375 C 286.28125 35.335938 284.433594 34.101562 283.167969 32.359375 L 273.59375 19.195312 C 268.714844 12.488281 260.589844 9.117188 252.398438 10.410156 L 236.308594 12.941406 C 234.1875 13.273438 232.007812 12.839844 230.175781 11.722656 L 216.246094 3.230469 C 209.1875 -1.078125 200.414062 -1.074219 193.355469 3.230469 L 179.429688 11.722656 C 177.59375 12.839844 175.414062 13.269531 173.292969 12.9375 L 157.207031 10.40625 C 149.015625 9.117188 140.890625 12.484375 136.011719 19.191406 L 126.4375 32.355469 C 125.171875 34.09375 123.324219 35.332031 121.230469 35.835938 L 105.394531 39.667969 C 97.347656 41.613281 91.140625 47.824219 89.195312 55.867188 L 85.359375 71.707031 C 84.855469 73.796875 83.617188 75.648438 81.875 76.910156 L 68.710938 86.488281 C 62.003906 91.367188 58.636719 99.488281 59.925781 107.683594 L 62.457031 123.773438 C 62.789062 125.894531 62.359375 128.074219 61.238281 129.90625 L 52.746094 143.835938 C 48.441406 150.898438 48.441406 159.667969 52.746094 166.726562 L 61.238281 180.652344 C 62.359375 182.488281 62.789062 184.667969 62.457031 186.789062 L 59.925781 202.875 C 58.632812 211.070312 62 219.191406 68.710938 224.070312 L 81.871094 233.644531 C 83.609375 234.910156 84.847656 236.757812 85.355469 238.847656 L 89.1875 254.6875 C 91.132812 262.734375 97.339844 268.941406 105.386719 270.886719 L 112 272.488281 L 67.234375 372.339844 C 66.285156 374.460938 66.546875 376.929688 67.925781 378.804688 C 69.304688 380.679688 71.582031 381.667969 73.890625 381.390625 L 109.910156 377.082031 L 130.660156 406.835938 C 131.871094 408.574219 133.855469 409.597656 135.953125 409.597656 C 136.152344 409.597656 136.355469 409.589844 136.558594 409.570312 C 138.871094 409.351562 140.890625 407.90625 141.84375 405.785156 L 187.558594 303.800781 L 193.351562 307.332031 C 196.882812 309.488281 200.839844 310.5625 204.796875 310.5625 C 208.757812 310.5625 212.714844 309.484375 216.246094 307.332031 L 222.246094 303.675781 L 268.019531 405.785156 C 268.972656 407.90625 270.992188 409.351562 273.304688 409.570312 C 273.507812 409.589844 273.710938 409.597656 273.910156 409.597656 C 276.007812 409.597656 277.992188 408.574219 279.203125 406.835938 L 299.953125 377.082031 L 335.972656 381.390625 C 338.28125 381.664062 340.558594 380.679688 341.9375 378.804688 C 343.3125 376.929688 343.578125 374.460938 342.628906 372.339844 L 297.839844 272.433594 L 304.207031 270.894531 C 312.25 268.949219 318.457031 262.742188 320.40625 254.695312 L 324.238281 238.855469 C 324.746094 236.765625 325.980469 234.914062 327.722656 233.652344 L 340.886719 224.078125 C 347.59375 219.199219 350.960938 211.074219 349.671875 202.878906 L 347.140625 186.792969 C 346.808594 184.667969 347.238281 182.488281 348.359375 180.65625 L 356.851562 166.726562 C 361.15625 159.667969 361.15625 150.894531 356.851562 143.835938 Z M 134.726562 390.101562 L 118.28125 366.523438 C 116.921875 364.566406 114.589844 363.519531 112.222656 363.804688 L 83.679688 367.21875 L 124.460938 276.238281 C 125.207031 276.789062 125.875 277.445312 126.429688 278.203125 L 136.003906 291.367188 C 136.910156 292.617188 137.933594 293.753906 139.046875 294.761719 L 117.582031 342.648438 C 116.125 345.898438 117.578125 349.71875 120.832031 351.175781 C 121.691406 351.5625 122.585938 351.742188 123.46875 351.742188 C 125.933594 351.742188 128.289062 350.324219 129.363281 347.929688 L 150.753906 300.210938 C 152.855469 300.5 155.023438 300.496094 157.199219 300.15625 L 173.289062 297.625 C 174.25 297.472656 175.222656 297.484375 176.171875 297.640625 Z M 297.640625 363.804688 C 295.273438 363.523438 292.945312 364.566406 291.582031 366.523438 L 275.136719 390.101562 L 233.675781 297.605469 C 234.542969 297.488281 235.429688 297.488281 236.308594 297.625 L 252.390625 300.15625 C 254.65625 300.511719 256.910156 300.5 259.09375 300.175781 L 280.5 347.929688 C 281.574219 350.324219 283.929688 351.746094 286.394531 351.746094 C 287.277344 351.746094 288.171875 351.5625 289.03125 351.179688 C 292.28125 349.722656 293.738281 345.902344 292.28125 342.648438 L 270.730469 294.582031 C 271.769531 293.617188 272.730469 292.546875 273.589844 291.371094 L 283.160156 278.210938 C 283.765625 277.378906 284.503906 276.667969 285.335938 276.09375 L 326.183594 367.21875 Z M 345.828125 160.007812 L 337.335938 173.933594 C 334.628906 178.378906 333.578125 183.65625 334.390625 188.796875 L 336.921875 204.886719 C 337.453125 208.269531 336.0625 211.621094 333.292969 213.636719 L 320.128906 223.210938 C 315.914062 226.277344 312.917969 230.753906 311.691406 235.820312 L 307.859375 251.660156 C 307.054688 254.980469 304.492188 257.542969 301.171875 258.347656 L 285.332031 262.179688 C 280.265625 263.40625 275.789062 266.402344 272.722656 270.617188 L 263.148438 283.777344 C 261.132812 286.546875 257.78125 287.9375 254.398438 287.402344 L 238.3125 284.871094 C 233.171875 284.0625 227.894531 285.109375 223.449219 287.820312 L 209.523438 296.3125 C 206.609375 298.085938 202.988281 298.085938 200.074219 296.3125 L 186.144531 287.820312 C 182.679688 285.707031 178.710938 284.605469 174.691406 284.605469 C 173.554688 284.605469 172.414062 284.691406 171.28125 284.871094 L 155.195312 287.402344 C 151.808594 287.933594 148.457031 286.542969 146.441406 283.773438 L 136.867188 270.609375 C 133.800781 266.398438 129.324219 263.402344 124.261719 262.175781 L 108.421875 258.339844 C 105.097656 257.539062 102.535156 254.976562 101.734375 251.65625 L 97.898438 235.816406 C 96.675781 230.75 93.679688 226.269531 89.464844 223.203125 L 76.304688 213.632812 C 73.535156 211.617188 72.144531 208.261719 72.675781 204.878906 L 75.207031 188.796875 C 76.015625 183.65625 74.96875 178.375 72.261719 173.933594 L 63.769531 160.003906 C 61.992188 157.089844 61.992188 153.46875 63.769531 150.554688 L 72.261719 136.625 C 74.972656 132.183594 76.019531 126.90625 75.210938 121.765625 L 72.679688 105.675781 C 72.144531 102.292969 73.535156 98.941406 76.304688 96.925781 L 89.46875 87.351562 C 93.683594 84.285156 96.679688 79.808594 97.90625 74.742188 L 101.738281 58.902344 C 102.542969 55.582031 105.105469 53.019531 108.425781 52.214844 L 124.265625 48.382812 C 129.332031 47.15625 133.8125 44.160156 136.875 39.945312 L 146.449219 26.785156 C 148.464844 24.015625 151.816406 22.625 155.199219 23.15625 L 171.285156 25.6875 C 176.425781 26.5 181.707031 25.453125 186.148438 22.742188 L 200.074219 14.25 C 202.988281 12.472656 206.613281 12.472656 209.523438 14.25 L 223.453125 22.742188 C 227.898438 25.453125 233.175781 26.5 238.316406 25.691406 L 254.40625 23.160156 C 257.789062 22.628906 261.140625 24.019531 263.15625 26.785156 L 272.730469 39.949219 C 275.796875 44.164062 280.273438 47.160156 285.339844 48.386719 L 301.179688 52.21875 C 304.5 53.023438 307.0625 55.585938 307.867188 58.90625 L 311.699219 74.746094 C 312.925781 79.8125 315.921875 84.292969 320.136719 87.355469 L 333.296875 96.929688 C 336.066406 98.945312 337.457031 102.296875 336.921875 105.679688 L 334.390625 121.765625 C 333.582031 126.90625 334.628906 132.183594 337.339844 136.628906 L 345.832031 150.554688 C 347.605469 153.46875 347.605469 157.09375 345.828125 160.007812 Z M 345.828125 160.007812 "/>
<path style=" stroke:none;fill-rule:nonzero;fill:rgb(0%,0%,0%);fill-opacity:1;" d="M 132.4375 147.363281 L 161.152344 173.921875 L 153.53125 212.28125 C 152.632812 216.800781 154.390625 221.285156 158.117188 223.992188 C 160.171875 225.484375 162.558594 226.242188 164.957031 226.242188 C 166.90625 226.242188 168.867188 225.742188 170.667969 224.734375 L 204.796875 205.628906 L 238.929688 224.734375 C 242.945312 226.984375 247.753906 226.699219 251.480469 223.992188 C 255.207031 221.285156 256.960938 216.800781 256.066406 212.28125 L 248.441406 173.921875 L 277.160156 147.363281 C 280.539062 144.238281 281.753906 139.574219 280.332031 135.195312 C 278.910156 130.816406 275.1875 127.761719 270.613281 127.21875 L 231.773438 122.613281 L 215.390625 87.097656 C 213.460938 82.914062 209.402344 80.316406 204.796875 80.316406 C 200.195312 80.316406 196.136719 82.914062 194.207031 87.097656 L 177.824219 122.613281 L 138.984375 127.21875 C 134.410156 127.761719 130.6875 130.820312 129.265625 135.199219 C 127.84375 139.574219 129.058594 144.238281 132.4375 147.363281 Z M 182.933594 135.007812 C 185.160156 134.742188 187.09375 133.339844 188.035156 131.300781 L 204.796875 94.957031 L 221.5625 131.300781 C 222.503906 133.339844 224.433594 134.742188 226.664062 135.007812 L 266.410156 139.71875 L 237.023438 166.894531 C 235.375 168.417969 234.640625 170.691406 235.074219 172.890625 L 242.875 212.148438 L 207.949219 192.597656 C 206.96875 192.050781 205.882812 191.777344 204.796875 191.777344 C 203.710938 191.777344 202.625 192.050781 201.644531 192.597656 L 166.71875 212.148438 L 174.519531 172.890625 C 174.957031 170.691406 174.21875 168.417969 172.570312 166.894531 L 143.183594 139.71875 Z M 182.933594 135.007812 "/>
</g>
</svg>
